<?xml version="1.0" encoding="UTF-8"?>
<svg width="46px" height="46px" viewBox="0 0 46 46" version="1.1" xmlns="http://www.w3.org/2000/svg" xmlns:xlink="http://www.w3.org/1999/xlink">
    <title>4B3486D7-CF1C-4CE0-9D62-ADDFD4158568</title>
    <g id="Page-1" stroke="none" stroke-width="1" fill="none" fill-rule="evenodd">
        <g id="Resources" transform="translate(-1189.000000, -920.000000)" fill="#DB3900" fill-rule="nonzero">
            <g transform="translate(201.000000, 890.000000)" id="Software">
                <g transform="translate(958.000000, 0.000000)">
                    <g id="software-icon" transform="translate(30.000000, 30.000000)">
                        <path d="M22.5438596,18.8011696 C26.2645148,18.8011696 29.2807018,15.7849826 29.2807018,12.0643275 C29.2807018,8.34367233 26.2645148,5.32748538 22.5438596,5.32748538 C18.8232045,5.32748538 15.8070175,8.34367233 15.8070175,12.0643275 C15.8111428,15.7832726 18.8249146,18.7970443 22.5438596,18.8011696 Z M22.5438596,6.8245614 C25.4377025,6.8245614 27.7836257,9.17048459 27.7836257,12.0643275 C27.7836257,14.9581704 25.4377025,17.3040936 22.5438596,17.3040936 C19.6500167,17.3040936 17.3040936,14.9581704 17.3040936,12.0643275 C17.3073936,9.17185261 19.6513848,6.82786144 22.5438596,6.8245614 Z" id="Shape"></path>
                        <path d="M22.5438596,15.8070175 C24.6108903,15.8070175 26.2865497,14.1313581 26.2865497,12.0643275 C26.2865497,9.99729684 24.6108903,8.32163743 22.5438596,8.32163743 C20.476829,8.32163743 18.8011696,9.99729684 18.8011696,12.0643275 C18.8036443,14.1303322 20.477855,15.8045428 22.5438596,15.8070175 L22.5438596,15.8070175 Z M22.5438596,9.81871345 C23.784078,9.81871345 24.7894737,10.8241091 24.7894737,12.0643275 C24.7894737,13.3045459 23.784078,14.3099415 22.5438596,14.3099415 C21.3036413,14.3099415 20.2982456,13.3045459 20.2982456,12.0643275 C20.2982456,10.8241091 21.3036413,9.81871345 22.5438596,9.81871345 Z" id="Shape"></path>
                        <path d="M45.0000391,28.5321637 C44.9981476,27.8941696 44.5907956,27.3279684 43.9864795,27.1234152 L36.4135205,24.4152047 L43.9872281,21.7062456 C44.592296,21.5032864 45.0000391,20.9364459 45.0000391,20.2982456 C45.0000391,19.6600453 44.592296,19.0932048 43.9872281,18.8902456 L32.2351813,14.683462 C32.2553918,14.6086082 32.2808421,14.5337544 32.298807,14.4589006 L33.6813567,14.0359766 C34.1229524,13.9037594 34.4395591,13.5160051 34.4807953,13.0568889 C34.5107368,12.7297778 34.5249591,12.3981754 34.5249591,12.0643275 C34.5249591,11.7304795 34.5107368,11.3988772 34.4807953,11.0717661 C34.4393367,10.6123317 34.1224933,10.2243543 33.6806082,10.0919298 L32.2943158,9.66900585 C32.0529399,8.67976368 31.660326,7.73370293 31.1303392,6.86423392 L31.8092632,5.5917193 C32.0295058,5.18544795 31.9796731,4.6859346 31.6835088,4.33118129 C31.4729201,4.07917349 31.2483587,3.8351501 31.0098246,3.59911111 C30.7712904,3.36307212 30.5270175,3.13851072 30.2770058,2.9254269 C29.9225398,2.63065366 29.4245055,2.58087986 29.0187135,2.79967251 L27.7402105,3.47934503 C26.8718351,2.94932091 25.9271186,2.55598358 24.9391813,2.31312281 L24.5170058,0.930573099 C24.3829741,0.489583785 23.9953701,0.173582991 23.5364211,0.131134503 C22.8760514,0.0716246579 22.2116679,0.0716246579 21.5512982,0.131134503 C21.0921088,0.173192687 20.704425,0.489796192 20.571462,0.931321637 L20.148538,2.31312281 C19.1596498,2.5552257 18.2139073,2.94806481 17.3445146,3.47784795 L16.0675088,2.79892398 C15.6606867,2.57961002 15.1613862,2.62968823 14.8062222,2.9254269 C14.5547135,3.13501754 14.3106901,3.35957895 14.0749006,3.59911111 C13.8391111,3.83864327 13.6138012,4.07892398 13.4012164,4.33043275 C13.1048954,4.68471325 13.0544786,5.18383998 13.2739649,5.59022222 L13.9536374,6.86797661 C13.4258206,7.73677212 13.0345176,8.68145321 12.7934035,9.66900585 L11.4108538,10.0919298 C10.9692581,10.224147 10.6526514,10.6119013 10.6114152,11.0710175 C10.5814737,11.3981287 10.5672515,11.729731 10.5672515,12.0635789 C10.5672515,12.3974269 10.5814737,12.7290292 10.6114152,13.0546433 C10.6524912,13.514561 10.9693652,13.9031689 11.4116023,14.0359766 L12.7934035,14.458152 C12.8113684,14.5330058 12.8368187,14.6078596 12.8570292,14.6827135 L1.10049123,18.8902456 C0.495423335,19.0932048 0.0876801496,19.6600453 0.0876801496,20.2982456 C0.0876801496,20.9364459 0.495423335,21.5032864 1.10049123,21.7062456 L8.67419883,24.4152047 L1.10049123,27.1234152 C0.495059026,27.3264412 0.087053792,27.8935968 0.087053792,28.5321637 C0.087053792,29.1707307 0.495059026,29.7378863 1.10049123,29.9409123 L7.62699415,32.2748538 L1.10049123,34.6095439 C0.495059026,34.8125698 0.087053792,35.3797255 0.087053792,36.0182924 C0.087053792,36.6568593 0.495059026,37.224015 1.10049123,37.4270409 L22.0056608,44.9056842 C22.352671,45.0314311 22.7328027,45.0314311 23.0798129,44.9056842 L43.9864795,37.4270409 C44.5919117,37.224015 45.0000391,36.6568593 45.0000391,36.0182924 C45.0000391,35.3797255 44.5919117,34.8125698 43.9864795,34.6095439 L37.4614737,32.2748538 L43.9872281,29.9409123 C44.5912486,29.736102 44.9982567,29.1699607 45.0000391,28.5321637 Z M12.0830409,12.675883 C12.0703158,12.4737778 12.0643275,12.2694269 12.0643275,12.0643275 C12.0643275,11.8592281 12.0703158,11.6556257 12.0830409,11.4527719 L13.6474854,10.9744561 C13.9116755,10.8941447 14.1101956,10.6749095 14.1639766,10.4040702 C14.3814669,9.29982407 14.8171405,8.25008472 15.4454737,7.31635088 C15.5992997,7.08691279 15.6142622,6.7914045 15.4843977,6.54760234 L14.714152,5.10292398 C14.8488889,4.95321637 14.988117,4.80350877 15.1340819,4.65754386 C15.2800468,4.51157895 15.4275088,4.37160234 15.5832047,4.23761404 L17.0316257,5.00785965 C17.2755642,5.1375021 17.571077,5.12225168 17.8003743,4.96818713 C18.7322346,4.33869697 19.7800947,3.90102837 20.8828538,3.68070175 C21.1533168,3.62718164 21.3724636,3.42931682 21.4532398,3.1657076 L21.9323041,1.60051462 C22.3396106,1.57506283 22.7481087,1.57506283 23.1554152,1.60051462 L23.6344795,3.1657076 C23.7152557,3.42931682 23.9344025,3.62718164 24.2048655,3.68070175 C25.3086429,3.89820803 26.3578893,4.33388833 27.2910877,4.96219883 C27.520385,5.11626338 27.8158978,5.1315138 28.0598363,5.00187135 L29.5052632,4.23461988 C29.6549708,4.36860819 29.8046784,4.50933333 29.9506433,4.65454971 C30.0966082,4.79976608 30.2358363,4.94797661 30.3705731,5.09992982 L29.6033216,6.54760234 C29.4731559,6.7915985 29.4881229,7.0874836 29.6422456,7.31709942 C30.2721472,8.25013092 30.7091265,9.29969563 30.9274854,10.4040702 C30.9812664,10.6749095 31.1797865,10.8941447 31.4439766,10.9744561 L33.0084211,11.4527719 C33.0211462,11.6548772 33.0271345,11.8592281 33.0271345,12.0643275 C33.0271345,12.2694269 33.0211462,12.4730292 33.0084211,12.675883 L31.4439766,13.1541988 C31.1797865,13.2345102 30.9812664,13.4537455 30.9274854,13.7245848 C30.7099951,14.8288309 30.2743215,15.8785702 29.6459883,16.8123041 C29.4921622,17.0417422 29.4771998,17.3372505 29.6070643,17.5810526 L30.3735673,19.025731 C30.2388304,19.1754386 30.0996023,19.3251462 29.9536374,19.4748538 C29.8076725,19.6245614 29.6602105,19.7607953 29.5082573,19.8947836 L28.0598363,19.124538 C27.8158978,18.9948956 27.520385,19.010146 27.2910877,19.1642105 C26.3580666,19.7933139 25.3088094,20.2297621 24.2048655,20.4479532 C23.9344025,20.5014733 23.7152557,20.6993381 23.6344795,20.9629474 L23.1554152,22.5281404 C22.7481087,22.5535921 22.3396106,22.5535921 21.9323041,22.5281404 L21.4532398,20.9629474 C21.3724636,20.6993381 21.1533168,20.5014733 20.8828538,20.4479532 C19.7787427,20.2303717 18.7292184,19.7944272 17.795883,19.1657076 C17.566445,19.0118815 17.2709367,18.9969191 17.0271345,19.1267836 L15.5824561,19.8932865 C15.4327485,19.7600468 15.2830409,19.6193216 15.1333333,19.4741053 C14.9836257,19.3288889 14.8481404,19.1806784 14.7134035,19.0249825 L15.4836491,17.5773099 C15.6138148,17.3333138 15.5988479,17.0374287 15.4447251,16.8078129 C14.8161451,15.8744854 14.3804458,14.8249387 14.1632281,13.7208421 C14.109447,13.4500028 13.9109269,13.2307676 13.6467368,13.1504561 L12.0830409,12.675883 Z M13.3555556,16.0952047 C13.5308868,16.4974719 13.7324271,16.8877998 13.9588772,17.2636725 L13.2799532,18.5361871 C13.0597106,18.9424585 13.1095433,19.4419718 13.4057076,19.7967251 C13.6162963,20.0487329 13.8408577,20.2927563 14.0793918,20.5287953 C14.3179259,20.7648343 14.5621988,20.9893957 14.8122105,21.2024795 C15.1669258,21.4966571 15.6645844,21.5463934 16.0705029,21.3282339 L17.3482573,20.6485614 C18.2164531,21.1785859 19.1608839,21.5721618 20.148538,21.8155322 L20.5707135,23.1980819 C20.7041836,23.6390196 21.0917572,23.954941 21.5505497,23.9967719 C21.8776608,24.0267135 22.2092632,24.0409357 22.5431111,24.0409357 C22.8769591,24.0409357 23.2085614,24.0267135 23.5356725,23.9967719 C23.9949435,23.9549132 24.382725,23.63823 24.5155088,23.1965848 L24.9376842,21.8155322 C25.9265725,21.5734293 26.8723149,21.1805902 27.7417076,20.650807 L29.0187135,21.329731 C29.4254506,21.5494695 29.9250036,21.499366 30.28,21.2032281 C30.5315088,20.9936374 30.7755322,20.769076 31.0113216,20.5295439 C31.2471111,20.2900117 31.4724211,20.049731 31.6850058,19.7982222 C31.9813268,19.4439417 32.0317436,18.944815 31.8122573,18.5384327 L31.1325848,17.2606784 C31.3587904,16.8847919 31.5600807,16.4944637 31.7351579,16.0922105 L43.4827135,20.2982456 L22.5116725,27.7746433 L1.60500585,20.2982456 L13.3555556,16.0952047 Z M43.4827135,36.0175439 L22.5116725,43.4961871 L1.60500585,36.0175439 L9.84865497,33.0683041 L22.0064094,37.4165614 C22.3534195,37.5423083 22.7335513,37.5423083 23.0805614,37.4165614 L35.2390643,33.0698012 L43.4827135,36.0175439 Z M22.5116725,36.0085614 L1.60500585,28.5321637 L10.8966082,25.210152 L22.0064094,29.1841404 C22.3534195,29.3098872 22.7335513,29.3098872 23.0805614,29.1841404 L34.1911111,25.210152 L43.4827135,28.5321637 L22.5116725,36.0085614 Z" id="Shape"></path>
                        <path d="M20.5602339,32.3190175 L12.1893333,29.3248655 C11.8045683,29.2003102 11.3904429,29.4038982 11.2540875,29.7846413 C11.1177321,30.1653845 11.3084592,30.5855881 11.6848187,30.733614 L20.0557193,33.7277661 C20.136601,33.7570299 20.2219637,33.7719299 20.3079766,33.7719299 C20.671582,33.7714194 20.9822311,33.5096858 21.0444305,33.1514395 C21.1066298,32.7931932 20.9023873,32.4420631 20.5602339,32.3190175 Z" id="Path"></path>
                        <path d="M20.5602339,39.8043977 L12.1893333,36.8102456 C11.8045683,36.6856903 11.3904429,36.8892783 11.2540875,37.2700215 C11.1177321,37.6507646 11.3084592,38.0709682 11.6848187,38.2189942 L20.0557193,41.2131462 C20.136601,41.24241 20.2219637,41.25731 20.3079766,41.25731 C20.671582,41.2567995 20.9822311,40.9950659 21.0444305,40.6368196 C21.1066298,40.2785733 20.9023873,39.9274432 20.5602339,39.8043977 Z" id="Path"></path>
                    </g>
                </g>
            </g>
        </g>
    </g>
</svg>