<?xml version="1.0" encoding="UTF-8"?>
<svg width="40px" height="50px" viewBox="0 0 40 50" version="1.1" xmlns="http://www.w3.org/2000/svg" xmlns:xlink="http://www.w3.org/1999/xlink">
    <title>36E4C88E-29C4-4CAB-B8C8-C60D642B8539</title>
    <g id="Page-1" stroke="none" stroke-width="1" fill="none" fill-rule="evenodd">
        <g id="Resources" transform="translate(-231.000000, -920.000000)" fill="#DB3900" fill-rule="nonzero">
            <g transform="translate(201.000000, 890.000000)" id="Policy">
                <g id="policy-icon" transform="translate(30.000000, 30.000000)">
                    <path d="M19.4174757,12.8640777 C19.8196117,12.8640777 20.1456311,12.5380583 20.1456311,12.1359223 C20.1456311,11.7337864 19.8196117,11.407767 19.4174757,11.407767 L9.80864078,11.407767 C9.40650485,11.407767 9.08048544,11.7337864 9.08048544,12.1359223 C9.08048544,12.5380583 9.40650485,12.8640777 9.80864078,12.8640777 L19.4174757,12.8640777 Z" id="Path"></path>
                    <path d="M5.77951456,17.0873786 C5.77951456,17.4895146 6.10553398,17.815534 6.5076699,17.815534 L22.7184466,17.815534 C23.1206796,17.815534 23.4466019,17.4895146 23.4466019,17.0873786 C23.4466019,16.6852427 23.1206796,16.3592233 22.7184466,16.3592233 L6.5076699,16.3592233 C6.10553398,16.3592233 5.77951456,16.6852427 5.77951456,17.0873786 Z" id="Path"></path>
                    <path d="M6.5076699,21.2135922 L22.7184466,21.2135922 C23.1206796,21.2135922 23.4466019,20.8875728 23.4466019,20.4854369 C23.4466019,20.083301 23.1206796,19.7572816 22.7184466,19.7572816 L6.5076699,19.7572816 C6.10553398,19.7572816 5.77951456,20.083301 5.77951456,20.4854369 C5.77951456,20.8875728 6.10553398,21.2135922 6.5076699,21.2135922 Z" id="Path"></path>
                    <path d="M6.5076699,28.0097087 L12.038835,28.0097087 C12.4409709,28.0097087 12.7669903,27.6836893 12.7669903,27.2815534 C12.7669903,26.8794175 12.4409709,26.5533981 12.038835,26.5533981 L6.5076699,26.5533981 C6.10553398,26.5533981 5.77951456,26.8794175 5.77951456,27.2815534 C5.77951456,27.6836893 6.10553398,28.0097087 6.5076699,28.0097087 Z" id="Path"></path>
                    <path d="M39.2706796,32.4739806 C39.6729126,32.4739806 39.998835,32.1479612 39.998835,31.7458252 L39.998835,28.4735922 C39.998835,28.0261165 39.7716505,27.6181553 39.391165,27.3824272 L35.8892233,25.2133981 L35.8892233,1.01941748 C35.8892233,0.457281553 35.4319417,2.75938927e-15 34.8698058,2.75938927e-15 L7.68475728,2.75938927e-15 C7.12262136,2.75938927e-15 6.66533981,0.457281553 6.66533981,1.01941748 L6.66533981,3.33213592 L4.35262136,3.33213592 C3.79048544,3.33213592 3.33320388,3.78941748 3.33320388,4.3515534 L3.33320388,6.66427184 L1.02058252,6.66427184 C0.458446602,6.66427184 0.00116504854,7.1215534 0.00116504854,7.68368932 L0.00116504854,44.8650485 C0.00116504854,45.4271845 0.458446602,45.884466 1.02058252,45.884466 L6.40776699,45.884466 C6.80990291,45.884466 7.13592233,45.5584466 7.13592233,45.1563107 C7.13592233,44.7541748 6.80990291,44.4281553 6.40776699,44.4281553 L1.45747573,44.4281553 L1.45747573,8.12058252 L27.7687379,8.12058252 L27.7687379,21.5158252 L23.3425243,24.2572816 C23.4081553,24.1479612 23.4466019,24.0203883 23.4466019,23.8834951 C23.4466019,23.4813592 23.1206796,23.1553398 22.7184466,23.1553398 L6.5076699,23.1553398 C6.10553398,23.1553398 5.77951456,23.4813592 5.77951456,23.8834951 C5.77951456,24.2856311 6.10553398,24.6116505 6.5076699,24.6116505 L22.7184466,24.6116505 C22.7375728,24.6116505 22.7562136,24.6101942 22.7749515,24.608835 L19.6353398,26.5533981 L14.368932,26.5533981 C13.9667961,26.5533981 13.6407767,26.8794175 13.6407767,27.2815534 C13.6407767,27.6836893 13.9667961,28.0097087 14.368932,28.0097087 L17.7758252,28.0097087 C17.7197087,28.1550485 17.6891262,28.3115534 17.6891262,28.4736893 L17.6891262,29.9514563 L6.5076699,29.9514563 C6.10553398,29.9514563 5.77951456,30.2774757 5.77951456,30.6796117 C5.77951456,31.0817476 6.10553398,31.407767 6.5076699,31.407767 L17.6890291,31.407767 L17.6890291,33.3495146 L6.5076699,33.3495146 C6.10553398,33.3495146 5.77951456,33.675534 5.77951456,34.0776699 C5.77951456,34.4798058 6.10553398,34.8058252 6.5076699,34.8058252 L17.6890291,34.8058252 L17.6890291,36.5223301 C17.6890291,36.5975728 17.6901942,36.6726214 17.6921359,36.7475728 L6.5076699,36.7475728 C6.10553398,36.7475728 5.77951456,37.0735922 5.77951456,37.4757282 C5.77951456,37.8778641 6.10553398,38.2038835 6.5076699,38.2038835 L17.8499029,38.2038835 C18.2269903,40.1560194 19.2548544,41.9380583 20.795534,43.2509709 L22.1768932,44.4281553 L9.80582524,44.4281553 C9.40368932,44.4281553 9.0776699,44.7541748 9.0776699,45.1563107 C9.0776699,45.5584466 9.40368932,45.884466 9.80582524,45.884466 L23.8858252,45.884466 L28.0115534,49.4003883 C28.2526214,49.6059223 28.5483495,49.7086408 28.8439806,49.7086408 C29.1396117,49.7086408 29.4353398,49.6058252 29.6764078,49.4003883 L36.8924272,43.2508738 C38.8666019,41.5685437 39.998835,39.1160194 39.998835,36.522233 L39.998835,35.1438835 C39.998835,34.7417476 39.6729126,34.4157282 39.2706796,34.4157282 C38.8684466,34.4157282 38.5425243,34.7417476 38.5425243,35.1438835 L38.5425243,36.522233 C38.5425243,38.6887379 37.5967961,40.7372816 35.9478641,42.1424272 L28.8438835,48.1964078 L21.74,42.1424272 C20.091068,40.7372816 19.1453398,38.6887379 19.1453398,36.522233 L19.1453398,28.5698058 L28.8438835,22.5627184 L38.5425243,28.5698058 L38.5425243,31.7457282 C38.5425243,32.1480583 38.8685437,32.4739806 39.2706796,32.4739806 Z M29.2250485,21.1339806 L29.2250485,7.68368932 C29.2250485,7.1215534 28.767767,6.66427184 28.2056311,6.66427184 L4.78951456,6.66427184 L4.78951456,4.7884466 L31.1008738,4.7884466 L31.1008738,9.90291262 C31.1008738,10.3050485 31.4267961,10.631068 31.8290291,10.631068 C32.2312621,10.631068 32.5571845,10.3050485 32.5571845,9.90291262 L32.5571845,4.3515534 C32.5571845,3.78941748 32.0999029,3.33213592 31.537767,3.33213592 L8.12165049,3.33213592 L8.12165049,1.45631068 L34.4329126,1.45631068 L34.4329126,24.3114563 L32.5571845,23.1496117 L32.5571845,13.3009709 C32.5571845,12.898835 32.2312621,12.5728155 31.8290291,12.5728155 C31.4267961,12.5728155 31.1008738,12.898835 31.1008738,13.3009709 L31.1008738,22.2476699 L29.5197087,21.2683495 C29.4258252,21.2101942 29.3267961,21.1659223 29.2250485,21.1339806 Z" id="Shape"></path>
                    <path d="M22.1741748,34.0514563 C22.1741748,37.7292233 25.1662136,40.7213592 28.8439806,40.7213592 C32.5218447,40.7213592 35.5138835,37.7293204 35.5138835,34.0514563 C35.5138835,30.3735922 32.5218447,27.3815534 28.8439806,27.3815534 C25.1662136,27.3815534 22.1741748,30.3736893 22.1741748,34.0514563 Z M34.0575728,34.0514563 C34.0575728,36.9262136 31.7187379,39.2650485 28.8439806,39.2650485 C25.9693204,39.2650485 23.6304854,36.9263107 23.6304854,34.0514563 C23.6304854,31.1766019 25.9693204,28.8378641 28.8439806,28.8378641 C31.7187379,28.8378641 34.0575728,31.176699 34.0575728,34.0514563 Z" id="Shape"></path>
                    <path d="M27.3485437,33.3329126 C27.0642718,33.0485437 26.6032039,33.0485437 26.318835,33.3329126 C26.034466,33.6172816 26.034466,34.0783495 26.318835,34.3626214 L28.0759223,36.1196117 C28.2181553,36.2617476 28.4045631,36.3329126 28.5908738,36.3329126 C28.7771845,36.3329126 28.9635922,36.2618447 29.1058252,36.1196117 L31.8292233,33.3962136 C32.1135922,33.1118447 32.1135922,32.6507767 31.8292233,32.3665049 C31.5447573,32.0821359 31.0837864,32.0821359 30.7994175,32.3665049 L28.5909709,34.5750485 L27.3485437,33.3329126 Z" id="Path"></path>
                </g>
            </g>
        </g>
    </g>
</svg>