<?xml version="1.0" encoding="UTF-8"?>
<svg width="40px" height="46px" viewBox="0 0 40 46" version="1.1" xmlns="http://www.w3.org/2000/svg" xmlns:xlink="http://www.w3.org/1999/xlink">
    <title>9AA0E327-96B4-4C94-97E4-C43CBC3A1D14</title>
    <g id="Page-1" stroke="none" stroke-width="1" fill="none" fill-rule="evenodd">
        <g id="Resources" transform="translate(-710.000000, -920.000000)" fill="#DB3900" fill-rule="nonzero">
            <g transform="translate(201.000000, 890.000000)" id="Teaching">
                <g transform="translate(479.000000, 0.000000)">
                    <g id="teaching-icon" transform="translate(30.000000, 30.000000)">
                        <path d="M25.1585209,4.36469081 C24.830143,4.20367966 24.4335294,4.33935627 24.2726066,4.66764599 C24.1116837,4.99593571 24.247272,5.39254923 24.57565,5.55356038 C27.068498,6.77597393 28.9091802,9.00823809 29.6255209,11.6779865 C29.7204151,12.0314342 30.0838377,12.2406427 30.4365793,12.1458368 C30.7897621,12.0511192 30.9992355,11.6879614 30.9045179,11.3347785 C30.0888693,8.29578143 27.9945769,5.75526567 25.1585209,4.36469081 L25.1585209,4.36469081 Z" id="Path"></path>
                        <path d="M3.64084685,14.0275663 C3.64084685,13.6619368 3.34451219,13.3655139 2.97879444,13.3655139 L0.701334179,13.3655139 C0.335616431,13.3655139 0.0392817759,13.6619368 0.0392817759,14.0275663 C0.0392817759,14.3931958 0.335616431,14.6896187 0.701334179,14.6896187 L2.97879444,14.6896187 C3.34442392,14.6896187 3.64084685,14.3931958 3.64084685,14.0275663 Z" id="Path"></path>
                        <path d="M4.09854574,9.25028445 L1.96920867,8.44213915 C1.62758963,8.31255342 1.24509989,8.48433395 1.11533761,8.82621781 C0.985575344,9.16810167 1.15753242,9.55041487 1.49941628,9.68008887 L3.62875336,10.4882342 C3.97107859,10.6179964 4.35303869,10.4456863 4.48262441,10.1041555 C4.61238668,9.76235991 4.4404296,9.38004672 4.09854574,9.25028445 Z" id="Path"></path>
                        <path d="M3.62875336,17.5667219 L1.49941628,18.3748672 C1.15753242,18.5046295 0.985663617,18.8869427 1.11533761,19.2287383 C1.24492334,19.5704456 1.62697171,19.7425792 1.96920867,19.6128169 L4.09854574,18.8046716 C4.4404296,18.6749094 4.61229841,18.2925962 4.48262441,17.9508006 C4.35295041,17.6089167 3.97054894,17.4371362 3.62875336,17.5667219 Z" id="Path"></path>
                        <path d="M39.2889261,13.3655139 L37.0113775,13.3655139 C36.6456598,13.3655139 36.3493251,13.6619368 36.3493251,14.0275663 C36.3493251,14.3931958 36.6456598,14.6896187 37.0113775,14.6896187 L39.2889261,14.6896187 C39.6546438,14.6896187 39.9509785,14.3931958 39.9509785,14.0275663 C39.9509785,13.6619368 39.6545555,13.3655139 39.2889261,13.3655139 Z" id="Path"></path>
                        <path d="M36.3615069,10.4883224 L38.490844,9.68017714 C38.8327278,9.55041487 39.0045966,9.16810167 38.8749226,8.82630609 C38.7452486,8.48433395 38.3627589,8.3126417 38.0210516,8.44222742 L35.8917145,9.25037272 C35.5498306,9.38013499 35.3779618,9.76244818 35.5076358,10.1042438 C35.6372216,10.4458628 36.0192699,10.6179964 36.3615069,10.4883224 Z" id="Path"></path>
                        <path d="M38.490844,18.3748672 L36.3615069,17.5667219 C36.0197996,17.4371362 35.6373098,17.6089167 35.5076358,17.9508006 C35.3778736,18.2926844 35.5498306,18.6749976 35.8917145,18.8046716 L38.0210516,19.6128169 C38.3633768,19.7425792 38.7453369,19.570269 38.8749226,19.2287383 C39.0045966,18.8869427 38.8327278,18.5046295 38.490844,18.3748672 Z" id="Path"></path>
                        <path d="M21.4666519,1.32013249 C27.4456913,1.98598066 32.1940194,6.61337386 33.0139051,12.572993 C33.0635149,12.933944 33.3960418,13.188437 33.759994,13.1386506 C34.1222691,13.0888643 34.375438,12.7547485 34.3255633,12.3925617 C33.891257,9.23466001 32.3898104,6.26372192 30.0979615,4.02704408 C27.8023169,1.7864822 24.7890074,0.357773118 21.6131862,0.00406058807 C21.2496753,-0.036192198 20.9223566,0.225362638 20.8819272,0.58878527 C20.8414979,0.952207903 21.1032293,1.27961488 21.4666519,1.32013249 Z" id="Path"></path>
                        <path d="M33.8039543,14.9126862 C33.4413261,14.8820553 33.1191273,15.1515547 33.0879667,15.5158601 C32.7281633,19.7230707 30.3382424,23.5263411 26.6948356,25.689487 C25.7654906,26.2412856 25.1880926,27.2491059 25.1880926,28.3196888 L25.1880926,30.9333834 L22.3861986,30.9333834 L22.3861986,25.6704199 C22.3861986,25.3664054 22.488596,25.0664515 22.6745003,24.8258175 L23.6219415,23.5991669 C23.9858937,23.1279621 24.1863632,22.5405009 24.1863632,21.9450951 L24.1863632,17.1581032 C24.5519044,17.1579266 24.8480625,16.861592 24.8480625,16.4960508 C24.8480625,16.1305096 24.5519044,15.8341749 24.1863632,15.8339984 L24.1863632,15.7617905 C24.1863632,15.396161 23.8900285,15.0997381 23.5243108,15.0997381 C23.158593,15.0997381 22.8622584,15.396161 22.8622584,15.7617905 L22.8622584,15.8339101 L17.1280018,15.8339101 L17.1280018,15.7617905 C17.1280018,15.396161 16.8316672,15.0997381 16.4659494,15.0997381 C16.1002317,15.0997381 15.803897,15.396161 15.803897,15.7617905 L15.803897,15.8339101 C15.4383558,15.8340866 15.1421095,16.1304213 15.1421095,16.4959625 C15.1421095,16.8615037 15.4383558,17.1578383 15.803897,17.1580149 L15.803897,21.9450069 C15.803897,22.5404127 16.0043665,23.1278738 16.3683188,23.5990786 L17.3157599,24.825641 C17.501576,25.0663633 17.6040617,25.3663171 17.6040617,25.6703316 L17.6040617,30.9332951 L14.8022559,30.9332951 L14.8022559,28.3196888 C14.8022559,27.246546 14.2336853,26.2438455 13.3183758,25.7029046 C9.32981901,23.3457332 6.8521541,19.0073479 6.85206582,14.3808375 C6.85197755,7.68042579 11.8698934,2.06578004 18.524138,1.32066213 C18.8874723,1.27996798 19.1490272,0.95238445 19.108333,0.589050091 C19.0676388,0.225715733 18.7412029,-0.0360156507 18.376721,0.0047667773 C14.868108,0.397937631 11.6256402,2.06878135 9.2464004,4.70984079 C6.84853488,7.37164455 5.52796102,10.8062841 5.52796102,14.3811023 C5.52796102,19.6573951 8.36260458,24.3123297 12.644583,26.8430471 C13.1586887,27.146885 13.4780628,27.7128074 13.4780628,28.3198653 L13.4780628,31.3117243 C13.0574389,31.6393078 12.7852912,32.1490881 12.7852912,32.722249 L12.7852912,33.7001445 C12.7852912,34.1269476 12.9360626,34.5189709 13.1864949,34.8268694 C12.9360626,35.1346796 12.7852912,35.5267029 12.7852912,35.9535943 L12.7852912,36.9314899 C12.7852912,37.6367081 13.1964699,38.2460611 13.7908164,38.5371876 C13.7123411,38.7383633 13.6675864,38.9563109 13.6675864,39.1849397 L13.6675864,40.1628352 C13.6675864,41.1491168 14.4699939,41.9516126 15.4563637,41.9516126 L16.6643003,41.9516126 C16.7566346,43.7088762 18.2152684,45.1101322 19.9951301,45.1101322 C21.7749035,45.1101322 23.2335374,43.7087879 23.3258716,41.9516126 L24.5338083,41.9516126 C25.5201781,41.9516126 26.3225856,41.149205 26.3225856,40.1628352 L26.3225856,39.1849397 C26.3225856,38.9563109 26.2778309,38.7383633 26.1993556,38.5371876 C26.7936138,38.2460611 27.2048808,37.6367081 27.2048808,36.9314899 L27.2048808,35.9535943 C27.2048808,35.5267912 27.0541094,35.1347679 26.803677,34.8268694 C27.0541094,34.5190592 27.2048808,34.1270359 27.2048808,33.7001445 L27.2048808,32.722249 C27.2048808,32.1489999 26.9327331,31.6392195 26.5121092,31.3117243 L26.5121092,28.319777 C26.5121092,27.7142198 26.8411933,27.1426479 27.3708353,26.8281288 C31.380666,24.4473001 34.0111326,20.2606573 34.4072165,15.6287621 C34.4383771,15.2643685 34.1682597,14.9438468 33.8039543,14.9126862 L33.8039543,14.9126862 Z M17.4162153,22.7899623 C17.2303993,22.5493283 17.1280018,22.2493744 17.1280018,21.9452717 L17.1280018,17.1582797 L22.8622584,17.1582797 L22.8622584,21.9452717 C22.8622584,22.2493744 22.7599492,22.5493283 22.5740449,22.789874 L21.6266038,24.0165247 C21.2625632,24.4878177 21.0620938,25.0752789 21.0620938,25.6705964 L21.0620938,30.9335599 L18.9280782,30.9335599 L18.9280782,25.6705964 C18.9280782,25.0752789 18.7276087,24.4878177 18.3635682,24.0165247 L17.4162153,22.7899623 Z M19.9950418,43.7860274 C18.9455564,43.7860274 18.081269,42.9781469 17.9914065,41.9516126 L21.9987655,41.9516126 C21.9089029,42.9780586 21.0446156,43.7860274 19.9950418,43.7860274 Z M24.9984808,40.1628352 C24.9984808,40.4190054 24.7900667,40.6275077 24.5338083,40.6275077 C23.4295049,40.6275077 16.2714826,40.6275077 15.4563637,40.6275077 C15.2001935,40.6275077 14.9916912,40.4190937 14.9916912,40.1628352 L14.9916912,39.1849397 C14.9916912,38.9287696 15.2001053,38.7202672 15.4563637,38.7202672 L24.5338083,38.7202672 C24.7899784,38.7202672 24.9984808,38.9286813 24.9984808,39.1849397 L24.9984808,40.1628352 Z M25.880776,36.9314899 C25.880776,37.1877483 25.6723619,37.3961624 25.4160152,37.3961624 C24.9095892,37.3961624 14.8936191,37.3961624 14.5741568,37.3961624 C14.3178984,37.3961624 14.109396,37.1877483 14.109396,36.9314899 L14.109396,35.9535943 C14.109396,35.6974242 14.3178101,35.4889218 14.5741568,35.4889218 L25.4160152,35.4889218 C25.6722736,35.4889218 25.880776,35.6973359 25.880776,35.9535943 L25.880776,36.9314899 Z M25.880776,33.7001445 C25.880776,33.9563146 25.6723619,34.164817 25.4160152,34.164817 L14.5741568,34.164817 C14.3178984,34.164817 14.109396,33.9564029 14.109396,33.7001445 L14.109396,32.722249 C14.109396,32.4585756 14.3306098,32.2575765 14.5741568,32.2575765 L25.4160152,32.2575765 C25.6702433,32.2575765 25.880776,32.4678443 25.880776,32.722249 L25.880776,33.7001445 Z" id="Shape"></path>
                    </g>
                </g>
            </g>
        </g>
    </g>
</svg>