<svg xmlns="http://www.w3.org/2000/svg" viewBox="0 0 85.15 69.2"><defs><style>.cls-1{fill:#ffae0d;}</style></defs><g id="Layer_2" data-name="Layer 2"><g id="Layer_1-2" data-name="Layer 1"><path class="cls-1" d="M0,61.35A49.41,49.41,0,0,0,26.78,69.2c32.43,0,50.76-27.4,49.65-52a35.19,35.19,0,0,0,8.72-9,34.82,34.82,0,0,1-10,2.75A17.54,17.54,0,0,0,82.8,1.27,35.07,35.07,0,0,1,71.71,5.52,17.48,17.48,0,0,0,41.94,21.45,49.59,49.59,0,0,1,5.93,3.2a17.48,17.48,0,0,0,5.41,23.32,17.37,17.37,0,0,1-7.92-2.19,17.49,17.49,0,0,0,14,17.36A17.36,17.36,0,0,1,9.55,42,17.47,17.47,0,0,0,25.86,54.12,35.11,35.11,0,0,1,0,61.35Z"/></g></g></svg>