<?xml version="1.0" encoding="UTF-8"?>
<svg width="40px" height="49px" viewBox="0 0 40 49" version="1.1" xmlns="http://www.w3.org/2000/svg" xmlns:xlink="http://www.w3.org/1999/xlink">
    <title>2EF833BF-7F0F-4322-BECA-F02D10614FB7</title>
    <g id="Page-1" stroke="none" stroke-width="1" fill="none" fill-rule="evenodd">
        <g id="Get-Involved" transform="translate(-1295.000000, -806.000000)" fill="#000000" fill-rule="nonzero">
            <g id="Group-9" transform="translate(1260.000000, 743.000000)">
                <g id="address" transform="translate(35.000000, 63.000000)">
                    <path d="M19.9987897,2.38187929 C26.9039081,2.38187929 32.5076442,7.94880119 32.5076442,14.8177189 C32.5076442,17.4873626 31.360268,21.5393798 28.9335981,24.3556668 L19.9987897,34.6992322 L11.0676627,24.3587346 C8.63792493,21.5424477 7.49054877,17.4904305 7.49054877,14.8177189 C7.49054877,7.94880119 13.0936713,2.38187929 19.9987897,2.38187929 Z M19.9987897,0 C11.7953569,0 5.10192021,6.65784961 5.10192021,14.8171054 C5.10192021,18.120567 6.34869473,22.5401127 9.24965437,25.9037043 L9.24965437,25.9073857 L13.4145685,30.7282063 L6.25911349,30.7282063 C5.74248743,30.7306606 5.28353697,31.062602 5.12400873,31.5503903 L0.0589872086,47.1412076 C-0.191349409,47.9081703 0.386633664,48.6929265 1.19715982,48.6929265 L38.8004195,48.6929265 C39.6146271,48.6929265 40.1889288,47.9081703 39.9422736,47.1412076 L34.8735706,31.5503903 C34.7140424,31.0601477 34.2550919,30.7282063 33.7360116,30.7282063 L29.1900704,30.7282063 C27.5131832,30.6453743 27.5131832,33.1935311 29.1900704,33.1070177 L32.8671963,33.1070177 L37.1560516,46.3110472 L2.84520922,46.3110472 L7.1303831,33.1070177 L15.4681878,33.1070177 L18.6747053,36.8185035 L16.5713869,36.8185035 C15.9240704,36.8062321 15.3890372,37.3253125 15.3890372,37.972629 C15.3890372,38.6199455 15.9240704,39.1433208 16.5713869,39.1304358 L23.4188297,39.1304358 C24.0698276,39.1433208 24.6048607,38.6199455 24.6048607,37.972629 C24.6048607,37.3253125 24.069214,36.8068457 23.4188297,36.8185035 L21.3253283,36.8185035 L30.7473114,25.9073857 L30.7473114,25.9037043 C33.6519525,22.5401127 34.898727,18.120567 34.898727,14.8171054 C34.8993406,6.65784961 28.2022225,0 19.9987897,0 L19.9987897,0 Z" id="Shape"></path>
                    <path d="M22.5702622,17.3750793 C21.1406437,18.7973349 18.8569357,18.8004027 17.4279308,17.3787607 C15.9983124,15.9565051 15.9983124,13.6801599 17.4279308,12.2566772 C18.8575492,10.8350351 21.1406437,10.838103 22.5702622,12.2603586 C24.0029484,13.6820006 24.0029484,15.9503694 22.5702622,17.3720114 L22.5702622,17.3750793 Z M24.2655565,19.0581022 C26.6093944,16.7277628 26.6093944,12.9107429 24.2655565,10.5767221 C21.9186507,8.24515557 18.081383,8.24515557 15.7387722,10.5767221 C13.3918664,12.9107429 13.3918664,16.7271492 15.7387722,19.0581022 C18.081383,21.3896687 21.9186507,21.3896687 24.2655565,19.0581022 Z" id="Shape"></path>
                </g>
            </g>
        </g>
    </g>
</svg>