<svg xmlns="http://www.w3.org/2000/svg" viewBox="0 0 393.72 393.87"><defs><style>.cls-1{fill:#1b56ea;}</style></defs><g id="Layer_2" data-name="Layer 2"><g id="Layer_1-2" data-name="Layer 1"><path class="cls-1" d="M0,61.56C2.59,54.64,6.58,49,14.07,46.82a19.14,19.14,0,0,1,22.67,9.44c1.26,2.34,2.61,3.21,5,2.84,4.92-.74,8.53,1.25,11.88,4.85,6.15,6.59,12.62,12.9,19.15,19.12a8.5,8.5,0,0,0,5.26,2.19q25.64.24,51.28,0a5.22,5.22,0,0,0,3.87-1.8c7.5-12.21,18.48-14.62,30.89-6.36C172.33,72.55,180.7,68,189,63.19c.85-.49,1.38-2.19,1.41-3.35.3-11.67,8.6-20.38,19.64-20.42s19.53,8.71,19.86,20.25a5.61,5.61,0,0,0,2.29,4Q242.9,70.07,254,75.86a5.08,5.08,0,0,0,4.2-.28c10-6.08,22.08-3.45,27.88,6.27s2.37,21.55-7.8,27.49a5.52,5.52,0,0,0-2.41,3.9q-.35,11.48,0,23a5.54,5.54,0,0,0,2.38,3.92c10.18,5.94,13.64,17.73,7.85,27.47s-17.93,12.51-27.79,6.19a3.8,3.8,0,0,0-4.71-.09c-7.1,4.08-14.36,7.89-21.42,12.06a5.63,5.63,0,0,0-2.31,4c-.33,11.55-8.77,20.31-19.83,20.28s-19.35-8.75-19.7-20.4a5.24,5.24,0,0,0-2.06-3.78c-7.9-4.6-15.94-9-24.15-13.51-5.1,3.73-10.65,5.92-17.16,4.4a18.75,18.75,0,0,1-13.18-10.12c-1.05-2.08-2.28-2.57-4.41-2.56-17.09.07-34.19,0-51.28.13a8.5,8.5,0,0,0-5.26,2.19c-6.82,6.51-13.58,13.11-20,20-3.16,3.38-6.7,4.2-11,4.1-1.51,0-3.78.89-4.48,2.09C33,200,26.69,204.08,18.1,203.36S3.59,197.63.78,189.27A7.37,7.37,0,0,0,0,187.92v-8.2c.5-1.09,1-2.18,1.48-3.28,3.18-7.28,8.75-11.53,16.61-12.19,8.08-.67,14.29,2.9,18.53,9.75,2.6,4.2,5.23,4.59,8.82,1,6.89-6.85,13.8-13.65,20.57-20.61A10.74,10.74,0,0,1,74.36,151c18.18.11,36.36,0,54.54.1a5,5,0,0,0,5.09-2.87c1.53-2.63,3.67-5.57,6.28-6.76,5.09-2.31,4.42-5.88,3.86-9.9a13,13,0,0,0-1.46-.19c-33.9,0-67.8-.05-101.71.08a5.49,5.49,0,0,0-3.86,2.47c-5,8.5-14,12.4-23,9.7C6.59,141.35,2.57,135.79,0,128.84v-8.2c.5-1.09,1-2.18,1.48-3.27,3.18-7.28,8.75-11.54,16.61-12.19,8.08-.68,14.46,2.8,18.43,9.8,1.46,2.58,2.95,3.25,5.67,3.25q49-.12,98-.06c1.32,0,2.65-.11,3.85-.16,1.09-4.61.67-7.93-4.11-10.17-2.49-1.16-4.5-4-6-6.52a4.93,4.93,0,0,0-5.07-2.89c-18.18.11-36.36,0-54.54.11A10.71,10.71,0,0,1,66,95.08c-6.77-7-13.69-13.75-20.57-20.6-3.6-3.58-6.31-3.25-8.81,1a19.62,19.62,0,0,1-23.73,8.65C6,81.62,2.48,76.19,0,69.77ZM203.53,92c0-4,.05-7.91,0-11.87-.06-3.49-5.66-6.71-8.74-5q-10.94,6-21.81,12.11c-3.35,1.88-3.47,7.37-.2,9.23,7.36,4.17,14.73,8.3,22.2,12.26,1,.53,2.67.25,3.89-.11,4.2-1.26,5.31-4.25,4.74-8.42A62,62,0,0,1,203.53,92Zm13.13-.34c0,4.1-.06,8.19,0,12.29.06,2.93,5.74,6.38,8.29,5q11.29-6.18,22.51-12.53c3-1.73,3.06-7.3,0-9Q236.31,81.06,225,74.91a3.74,3.74,0,0,0-2.9-.24c-3.53,1.63-6.46,3.59-5.53,8.44C217.09,85.88,216.66,88.83,216.66,91.69ZM157.57,124.6c0,4.09-.07,8.19,0,12.28.07,2.91,5.82,6.27,8.36,4.87q11.3-6.18,22.51-12.54c3-1.72,3-7.27-.1-9-7.48-4.23-15-8.41-22.54-12.48a4.61,4.61,0,0,0-3.23,0c-4.11,1.4-5.81,4.17-5.1,8.65C157.92,119.08,157.57,121.87,157.57,124.6Zm105,.36c0-4,.05-7.92,0-11.88-.05-3.53-5.59-6.86-8.66-5.18Q243,113.9,232.13,120a5.46,5.46,0,0,0,0,9.43q10.86,6.13,21.82,12.09a4.32,4.32,0,0,0,3.24.42c3.54-1.58,6.46-3.58,5.53-8.43C262.18,130.77,262.61,127.82,262.61,125ZM197,175.57a21.86,21.86,0,0,1,3.73-2.31c2.28-.82,2.94-2.22,2.89-4.6-.15-7.51,0-15-.07-22.52,0-3.83-5.5-7.14-8.81-5.32q-10.94,6-21.81,12.11c-3.32,1.87-3.37,7.38-.07,9.24C180.78,166.65,188.78,171,197,175.57Zm19.7-18.13c0,4,0,7.92,0,11.88.06,3.49,5.67,6.72,8.74,5q10.93-6,21.81-12.11c3.34-1.88,3.48-7.38.2-9.23-7.35-4.17-14.73-8.3-22.19-12.26-1-.54-2.68-.27-3.9.1-4.2,1.25-5.31,4.25-4.74,8.42A61.79,61.79,0,0,1,216.66,157.44Zm0-98.48a6.53,6.53,0,1,0-6.39,6.67A6.61,6.61,0,0,0,216.62,59ZM26.23,65.71a6.53,6.53,0,1,0-6.58,6.49A6.61,6.61,0,0,0,26.23,65.71ZM151,85.39a6.53,6.53,0,1,0,6.51,6.55A6.6,6.6,0,0,0,151,85.39ZM269.34,98.45a6.53,6.53,0,1,0-6.69-6.37A6.61,6.61,0,0,0,269.34,98.45ZM26.23,124.86a6.54,6.54,0,1,0-6.65,6.41A6.62,6.62,0,0,0,26.23,124.86Zm190.39-.1a6.53,6.53,0,1,0-6.55,6.51A6.6,6.6,0,0,0,216.62,124.76Zm-72.15,32.71a6.53,6.53,0,1,0,6.62-6.44A6.6,6.6,0,0,0,144.47,157.47Zm131.24-.05a6.53,6.53,0,1,0-6.4,6.67A6.61,6.61,0,0,0,275.71,157.42ZM26.23,184.14a6.54,6.54,0,1,0-6.86,6.21A6.63,6.63,0,0,0,26.23,184.14Zm183.93,12.77a6.53,6.53,0,1,0-6.6-6.46A6.61,6.61,0,0,0,210.16,196.91Z"/><path class="cls-1" d="M135.41,393.87c-3.34-2.32-4.27-5.5-4.16-9.52,1.49-57.07-14-109.56-43.15-158.3-7.54-12.61-13.66-25.8-17.48-40.47l12.48-3.4a49.28,49.28,0,0,0,1.78,5.53C90,198.84,94.46,210.38,100.56,221c18.79,32.6,32.93,66.94,39.15,104.11,3,18.13,4.09,36.59,6.1,55.35h90.54v-4.28q0-19.49,0-39c0-6.92,2.06-8.94,9.1-8.94h82.59V288.84H309a32.2,32.2,0,0,1-21.2-7.49c-7.77-6.44-11.73-14.78-12-25.13h12.75c.35,1.6.65,3.29,1.1,4.95a19.4,19.4,0,0,0,17.87,14.46c6.69.24,13.4.05,20.77.05v-7.24c0-5.34,0-10.67,0-16,0-7.75,1.84-9.54,9.74-9.54h40.34c-1-3.37-1.94-6.44-2.89-9.48-9-28.79-18.25-57.51-26.93-86.41-1.77-5.9-1.37-12.44-2.16-18.66-7.29-57-54.78-105.68-111.7-113.4-55.53-7.55-99.52,12.56-132.4,57.62-.56.77-1.09,1.57-1.67,2.32a4.5,4.5,0,0,1-.92.6L89.22,68.79a38.6,38.6,0,0,1,2.06-3.52c37.42-51,87.62-74.2,150-62.13,61.61,11.92,100.14,51.05,116,111.94,1.77,6.83,1.88,14.07,3.28,21,1.6,8,3.39,16,5.77,23.77,8.68,28.33,17.64,56.56,26.49,84.83,2.52,8.07.14,11.32-8.31,11.32H341.4v76.07c0,7.28-2,9.26-9.22,9.26h-82.7v4.44c0,12.86-.13,25.71.08,38.56.07,4-.86,7.19-4.18,9.52Z"/></g></g></svg>