<?xml version="1.0" encoding="UTF-8"?>
<svg width="40px" height="28px" viewBox="0 0 40 28" version="1.1" xmlns="http://www.w3.org/2000/svg" xmlns:xlink="http://www.w3.org/1999/xlink">
    <title>3C4BF3E6-4795-4F07-B6EA-9AF54D3BB69B</title>
    <g id="Page-1" stroke="none" stroke-width="1" fill="none" fill-rule="evenodd">
        <g id="Get-Involved" transform="translate(-1295.000000, -1014.000000)" fill="#000000" fill-rule="nonzero">
            <g id="Group-9" transform="translate(1260.000000, 743.000000)">
                <g id="email-(6)" transform="translate(35.000000, 271.000000)">
                    <path d="M36.0618661,27.5555556 L3.93813386,27.5555556 C1.76404747,27.5530811 0.00228119113,25.8013672 0,23.6398921 L0,3.91566345 C0.00228119113,1.7541884 1.76404747,0.00247449164 3.93813386,0 L36.0618661,0 C38.2359525,0.00247449164 39.9977188,1.7541884 40,3.91566345 L40,23.6398921 C39.9977188,25.8013672 38.2359525,27.5530811 36.0618661,27.5555556 Z M3.93813386,1.49652721 C2.59494925,1.49797098 1.50650344,2.58027025 1.505259,3.91566345 L1.505259,23.6398921 C1.50650344,24.9752853 2.59494925,26.0575846 3.93813386,26.0590283 L36.0618661,26.0590283 C37.4050508,26.0575846 38.4934966,24.9752853 38.494741,23.6398921 L38.494741,3.91566345 C38.4934966,2.58027025 37.4050508,1.49797098 36.0618661,1.49652721 L3.93813386,1.49652721 Z" id="Shape"></path>
                    <path d="M19.5551786,17.7777778 C19.3714245,17.7777778 19.1939601,17.712653 19.0561445,17.5943832 L0.888888889,1.98918929 L1.88658029,0.888888889 L19.5551786,16.0671662 L37.2245308,0.890722723 L38.2222222,1.99102313 L20.0549666,17.596217 C19.9167905,17.7141679 19.7389843,17.7787566 19.5551786,17.7777778 L19.5551786,17.7777778 Z" id="Path"></path>
                    <polygon id="Path" transform="translate(7.568531, 18.798035) rotate(-48.727883) translate(-7.568531, -18.798035) " points="-1.61417337 18.0493589 16.7512363 18.0493589 16.7512363 19.546712 -1.61417337 19.546712"></polygon>
                    <polygon id="Path" transform="translate(32.237736, 18.783622) rotate(-41.272117) translate(-32.237736, -18.783622) " points="31.4890592 9.60073037 32.9864123 9.60073037 32.9864123 27.9665144 31.4890592 27.9665144"></polygon>
                </g>
            </g>
        </g>
    </g>
</svg>