<?xml version="1.0" encoding="UTF-8"?>
<svg width="60px" height="60px" viewBox="0 0 60 60" version="1.1" xmlns="http://www.w3.org/2000/svg" xmlns:xlink="http://www.w3.org/1999/xlink">
    <g id="Artboard" stroke="none" stroke-width="1" fill="none" fill-rule="evenodd">
        <circle id="Oval" fill="#FFAE0D" cx="30" cy="30" r="30"></circle>
        <g id="social-in" transform="translate(17.000000, 17.000000)" fill="#000000" fill-rule="nonzero">
            <path d="M12.9999997,2.55973367 C16.4019997,2.55973367 16.803333,2.57373367 18.1482663,2.63440033 C19.387733,2.692267 20.062533,2.89760033 20.510533,3.07400033 C21.1050663,3.30360033 21.5315997,3.58080033 21.974933,4.02693367 C22.420133,4.47400033 22.694533,4.89773367 22.9278663,5.49040033 C23.103333,5.937467 23.3086663,6.61320033 23.3674663,7.85360033 C23.4262663,9.19573367 23.4402663,9.59800033 23.4402663,13.0000003 C23.4402663,16.4020003 23.4262663,16.8024003 23.3674663,18.1464003 C23.3095997,19.3877337 23.1051997,20.0625337 22.9278663,20.5096003 C22.6982663,21.105067 22.420133,21.5297337 21.974933,21.9740003 C21.5278663,22.4192003 21.1022663,22.6936003 20.510533,22.9260003 C20.062533,23.101467 19.387733,23.3077337 18.1482663,23.367467 C16.806133,23.426267 16.4019997,23.440267 12.9999997,23.440267 C9.60079967,23.440267 9.198533,23.426267 7.854533,23.367467 C6.61319967,23.3096003 5.939333,23.1024003 5.491333,22.9260003 C4.89586633,22.6964003 4.472133,22.4192003 4.026933,21.9740003 C3.58079967,21.5269337 3.30546633,21.102267 3.07399967,20.5096003 C2.898533,20.0625337 2.69226633,19.3877337 2.635333,18.1464003 C2.573733,16.804267 2.56066633,16.4020003 2.56066633,13.0000003 C2.56066633,9.59800033 2.573733,9.19853367 2.635333,7.85360033 C2.69226633,6.61320033 2.89946633,5.937467 3.07399967,5.49040033 C3.30546633,4.89493367 3.58079967,4.470267 4.026933,4.02693367 C4.472133,3.58080033 4.89586633,3.30733367 5.491333,3.07400033 C5.939333,2.89853367 6.614133,2.692267 7.854533,2.63440033 C9.198533,2.57373367 9.60079967,2.55973367 12.9999997,2.55973367 M12.9999997,0.264667 C9.54199967,0.264667 9.108933,0.281467 7.750933,0.341200333 C6.395733,0.402800333 5.46986633,0.618400333 4.659733,0.935733667 C3.822533,1.261467 3.11226633,1.69360033 2.40386633,2.40293367 C1.69546633,3.11040033 1.260533,3.82253367 0.934799667,4.657867 C0.620266333,5.467067 0.405599667,6.39293367 0.343066333,7.749067 C0.281466333,9.10800033 0.266533,9.541067 0.266533,12.999067 C0.266533,16.457067 0.281466333,16.891067 0.343066333,18.249067 C0.404666333,19.604267 0.620266333,20.5264003 0.934799667,21.340267 C1.260533,22.1765337 1.69546633,22.8877337 2.40386633,23.5952003 C3.111333,24.3045337 3.82159967,24.7413337 4.659733,25.0633337 C5.46986633,25.377867 6.395733,25.5925337 7.750933,25.6569337 C9.108933,25.716667 9.54199967,25.733467 12.9999997,25.733467 C16.458933,25.733467 16.892933,25.716667 18.250933,25.6569337 C19.606133,25.5972003 20.530133,25.377867 21.342133,25.0633337 C22.1783997,24.736667 22.8895997,24.3045337 23.598933,23.5952003 C24.3063997,22.8877337 24.744133,22.1756003 25.0651997,21.340267 C25.3815997,20.531067 25.595333,19.6080003 25.6587997,18.249067 C25.7194663,16.891067 25.735333,16.457067 25.735333,12.999067 C25.735333,9.541067 25.7194663,9.10800033 25.6587997,7.749067 C25.5999997,6.39480033 25.3815997,5.47080033 25.0651997,4.657867 C24.7394663,3.82160033 24.3063997,3.11040033 23.598933,2.40293367 C22.8895997,1.69360033 22.179333,1.258667 21.342133,0.935733667 C20.532933,0.618400333 19.6107997,0.405600333 18.250933,0.341200333 C16.892933,0.281467 16.458933,0.264667 12.9999997,0.264667" id="Shape"></path>
            <g id="Group" transform="translate(6.462000, 4.675600)">
                <path d="M6.538,1.78546667 C2.92786667,1.78546667 0,4.71333333 0,8.3244 C0,11.9354667 2.92786667,14.8633333 6.538,14.8633333 C10.15,14.8633333 13.0769333,11.9354667 13.0769333,8.3244 C13.0769333,4.71333333 10.15,1.78546667 6.538,1.78546667 M6.538,12.5692 C4.1944,12.5692 2.29413333,10.6689333 2.29413333,8.3244 C2.29413333,5.978 4.1944,4.0796 6.538,4.0796 C8.8844,4.0796 10.7837333,5.978 10.7837333,8.3244 C10.7837333,10.6689333 8.8844,12.5692 6.538,12.5692" id="Shape"></path>
                <path d="M14.8633333,1.52786667 C14.8633333,2.3716 14.182,3.05666667 13.3354667,3.05666667 C12.4889333,3.05666667 11.8057333,2.3744 11.8057333,1.52786667 C11.8057333,0.685066667 12.4870667,0 13.3354667,0 C14.1801333,0 14.8633333,0.682266667 14.8633333,1.52786667" id="Path"></path>
            </g>
        </g>
    </g>
</svg>