<?xml version="1.0" encoding="UTF-8"?>
<svg width="60px" height="60px" viewBox="0 0 60 60" version="1.1" xmlns="http://www.w3.org/2000/svg" xmlns:xlink="http://www.w3.org/1999/xlink">
    <g id="Artboard" stroke="none" stroke-width="1" fill="none" fill-rule="evenodd">
        <g id="social-fb-round" fill-rule="nonzero">
            <circle id="Oval" fill="#FFAE0D" cx="30" cy="30" r="30"></circle>
            <path d="M27.5307143,40.3807143 L27.5307143,30.8171429 L25,30.8171429 L25,27.3742857 L27.5307143,27.3742857 C27.5307143,27.3742857 27.5307143,25.9621429 27.5307143,24.4335714 C27.5307143,22.1235714 29.0221429,20 32.4642857,20 C33.8585714,20 34.89,20.1342857 34.89,20.1342857 L34.8092857,23.3485714 C34.8092857,23.3485714 33.7585714,23.3385714 32.6121429,23.3385714 C31.3735714,23.3385714 31.1728571,23.9121429 31.1728571,24.8607143 C31.1728571,25.6128571 31.1728571,23.2592857 31.1728571,27.375 L34.9078571,27.375 L34.7442857,30.8178571 L31.1714286,30.8178571 L31.1714286,40.3814286 L27.5307143,40.3807143 L27.5307143,40.3807143 Z" id="Path" fill="#000000"></path>
        </g>
    </g>
</svg>