<?xml version="1.0" encoding="UTF-8"?>
<svg width="24px" height="20px" viewBox="0 0 24 20" version="1.1" xmlns="http://www.w3.org/2000/svg" xmlns:xlink="http://www.w3.org/1999/xlink">
    <title>1A249596-760B-44E3-8643-20E3979DD918</title>
    <g id="Page-1" stroke="none" stroke-width="1" fill="none" fill-rule="evenodd">
        <g id="Home-2b" transform="translate(-1510.000000, -3154.000000)" fill="#1B56EA" fill-rule="nonzero">
            <g id="Footer" transform="translate(0.000000, 3006.000000)">
                <g id="Group-4" transform="translate(1510.331714, 145.264667)">
                    <g id="Path" transform="translate(0.000000, 3.538476)">
                        <path d="M23.3365714,2.24571429 C22.4777143,2.62714286 21.5545714,2.88342857 20.5877143,2.99914286 C21.5751429,2.40857143 22.3354286,1.46914286 22.692,0.350571429 C21.7688571,0.9 20.7437143,1.29771429 19.6517143,1.51285714 C18.7765714,0.582 17.532,0 16.158,0 C13.5128571,0 11.37,2.14457143 11.37,4.78628571 C11.37,5.16171429 11.4128571,5.52771429 11.4942857,5.87657143 C7.51628571,5.67857143 3.98914286,3.77057143 1.62685714,0.874285714 C1.21542857,1.58228571 0.978857143,2.40428571 0.978857143,3.28285714 C0.978857143,4.944 1.824,6.408 3.108,7.26685714 C2.32285714,7.242 1.58485714,7.026 0.940285714,6.66771429 C0.939428571,6.68742857 0.939428571,6.70971429 0.939428571,6.72771429 C0.939428571,9.048 2.58942857,10.9834286 4.78028571,11.424 C4.37828571,11.5328571 3.954,11.5868571 3.51857143,11.5868571 C3.21,11.5868571 2.91,11.5577143 2.61771429,11.4985714 C3.22714286,13.404 4.99457143,14.7848571 7.08942857,14.8251429 C5.45142857,16.1074286 3.38742857,16.8762857 1.14257143,16.8762857 C0.756,16.8762857 0.374571429,16.8565714 0,16.812 C2.11885714,18.1662857 4.63542857,18.9625714 7.33885714,18.9625714 C16.1425714,18.9625714 20.9597143,11.6648571 20.9597143,5.33828571 C20.9597143,5.13085714 20.9562857,4.926 20.9468571,4.71942857 C21.8837143,4.04914286 22.6954286,3.20571429 23.3365714,2.24571429 Z"></path>
                    </g>
                </g>
            </g>
        </g>
    </g>
</svg>