<?xml version="1.0" encoding="UTF-8"?>
<svg width="10px" height="21px" viewBox="0 0 10 21" version="1.1" xmlns="http://www.w3.org/2000/svg" xmlns:xlink="http://www.w3.org/1999/xlink">
    <title>EDB97F74-B7D7-41ED-ABE1-B2AFCE5FDFD1</title>
    <g id="Page-1" stroke="none" stroke-width="1" fill="none" fill-rule="evenodd">
        <g id="Home-2b" transform="translate(-1592.000000, -3153.000000)" fill="#1B56EA" fill-rule="nonzero">
            <g id="Footer" transform="translate(0.000000, 3006.000000)">
                <g id="Group-4" transform="translate(1510.331714, 145.264667)">
                    <g id="Path" transform="translate(81.715429, 1.948905)">
                        <path d="M2.53071429,20.3807143 L2.53071429,10.8171429 L0,10.8171429 L0,7.37428571 L2.53071429,7.37428571 C2.53071429,7.37428571 2.53071429,5.96214286 2.53071429,4.43357143 C2.53071429,2.12357143 4.02214286,0 7.46428571,0 C8.85857143,0 9.89,0.134285714 9.89,0.134285714 L9.80928571,3.34857143 C9.80928571,3.34857143 8.75857143,3.33857143 7.61214286,3.33857143 C6.37357143,3.33857143 6.17285714,3.91214286 6.17285714,4.86071429 C6.17285714,5.61285714 6.17285714,3.25928571 6.17285714,7.375 L9.90785714,7.375 L9.74428571,10.8178571 L6.17142857,10.8178571 L6.17142857,20.3814286 L2.53071429,20.3807143 L2.53071429,20.3807143 Z"></path>
                    </g>
                </g>
            </g>
        </g>
    </g>
</svg>