<svg xmlns="http://www.w3.org/2000/svg" viewBox="0 0 454.1 399.97"><defs><style>.cls-1{fill:#1b56ea;}</style></defs><g id="Layer_2" data-name="Layer 2"><g id="Layer_1-2" data-name="Layer 1"><path class="cls-1" d="M185.14,400a15.1,15.1,0,0,1-14.86-12,16.21,16.21,0,0,1-.23-6.18c8.22-43.95,57.61-61.81,92.83-34,1.93,1.52,3.8,3.09,5.63,4.59,32.08-24.47,52.2-24.43,86.55.34,14.27-13.69,31.2-20.47,51.45-17.59,25.15,3.58,46.72,26,47.58,51a10,10,0,0,1-.4,3.05A15,15,0,0,1,439.13,400Zm253.61-15.54c-.53-2.9-.57-5.38-1.43-7.53-12.12-30.16-50.48-35.37-71.78-9.81-8.62,10.34-11.86,10.44-19.8.6-18.9-23.42-48.69-23.67-67.77,0-6.39,7.91-11.25,8.57-17.36.24a45.17,45.17,0,0,0-9.38-9.74c-13.5-9.87-28.34-11.05-43.28-4.15-12.55,5.8-20.15,15.86-22.53,30.42Z"/><path class="cls-1" d="M423.32,215.52V16.66H66.52c0,8.85.87,17.87-.38,26.59a7.38,7.38,0,0,1-.52,1.8c-2.83,6.69-12.81,6.08-14.2-1q-.06-.33-.09-.66c-1-10.22-.08-20.61-.4-30.91C50.65,3.4,54.72-.51,63.58.05c2.47.16,5,0,7.44,0h349.3c19.56,0,19.6,0,19.6,18.94q0,97.79,0,195.57c0,15.22-1.19,16.47-16,16.48q-105.9.07-211.81,0c-3.28,0-7.11.6-9.71-.83s-5.53-5-5.94-7.9c-.25-1.81,3.6-5.32,6.19-6.1,3.82-1.16,8.16-.68,12.28-.68q96.62,0,193.23,0Z"/><path class="cls-1" d="M133.46,220.72c0,31.34,0,61.34,0,91.35,0,18.63-.15,18.76-18.53,18.76-33,0-66-.34-99,.18C4,331.2-.17,326.54,0,314.94c.45-29.68.24-59.37.14-89.06C0,177.74,46.06,148.22,84.21,161.11c22.22,7.51,45,13.27,67.41,20.33,6.92,2.18,11.19,1.62,14.95-5.29,4.51-8.29,9.61-16.52,15.83-23.56,4.57-5.17,11.37-8.36,17.14-12.49,3.13-2.25,6.94-4.08,9.09-7.07C218,120,226.45,106.24,236.18,93.48a6.47,6.47,0,0,1,1.33-1.28c5.62-4.16,13.55,1.5,11.48,8.18a6.8,6.8,0,0,1-.56,1.33c-5.6,10-12.68,19.26-19.13,28.82-6.1,9-14,17.13-10.52,30,.94,3.51-2.31,8.54-4.47,12.41-6.22,11.15-12.8,22.1-19.37,33-10.94,18.24-21.71,22.87-42.31,18.5C146.73,223.22,140.79,222.15,133.46,220.72Zm-15.57,94.9V301.78c0-27.65-.06-55.3,0-82.95,0-15.45,2.55-17.27,17.85-13.61,7.61,1.83,15.21,3.76,22.83,5.57,9.1,2.16,16.48-.63,21.35-8.52,7.58-12.29,14.84-24.77,22-37.31.91-1.62.91-3.75,1.09-5.79a2,2,0,0,0-1.12-2l0,0a2,2,0,0,0-2.48.54c-2.1,2.54-4.29,5-6.12,7.73-6.23,9.23-12.62,18.38-18.28,28-4.34,7.34-9.32,8.8-17.45,6.19-25.91-8.31-51.92-16.32-78.13-23.61-31.28-8.71-61,13-62.12,45.48C16.45,247,17,272.62,17,298.2c0,5.62,0,11.23,0,17.42Z"/><path class="cls-1" d="M21.39,104.67C21.68,79,42.67,58.38,68.1,58.79s46.22,21.52,45.9,46.9-21.8,46.33-46.92,46A46.57,46.57,0,0,1,21.39,104.67Zm15.54,1.39a30.65,30.65,0,0,0,30.56,30.71c16.57,0,30.84-14.08,31.09-30.65C98.83,89,84.43,75,66.9,75.18S36.78,88.53,36.93,106.06Z"/><path class="cls-1" d="M262.18,293.47c.07,19.7-16.68,36.59-36.21,36.52-19.78-.08-36.05-16.56-36.05-36.52,0-20.14,16.22-36.65,35.9-36.53C245.34,257.05,262.11,273.89,262.18,293.47Zm-14.92.24a21.2,21.2,0,0,0-21.08-21.15,20.68,20.68,0,0,0-20.72,20c-.42,11.93,8.4,21.41,20.18,21.68A21,21,0,0,0,247.26,293.71Z"/><path class="cls-1" d="M347.56,293.52c0,20.25-16.18,36.67-35.93,36.47s-36.35-17.08-36.31-36.59c.05-19.77,16.75-36.57,36.28-36.48C331.36,257,347.56,273.49,347.56,293.52Zm-15,.39c.21-12-8.73-21.3-20.51-21.35-11.47,0-21.37,9.74-21.29,21,.08,10.89,9.28,20.23,20.36,20.66A20.28,20.28,0,0,0,332.55,293.91Z"/><path class="cls-1" d="M433.71,294c-.3,19.74-17.38,36.46-36.77,36a36.46,36.46,0,0,1-35.48-37.07c.2-20.18,16.71-36.52,36.38-36S434,274.54,433.71,294Zm-15-.32a20.93,20.93,0,0,0-41.85-1.07,20.93,20.93,0,1,0,41.85,1.07Z"/></g></g></svg>