<svg xmlns="http://www.w3.org/2000/svg" viewBox="0 0 400.64 399.97"><defs><style>.cls-1{fill:#1b56ea;}</style></defs><g id="Layer_2" data-name="Layer 2"><g id="Layer_1-2" data-name="Layer 1"><path class="cls-1" d="M250.25,288.83C169.35,339.67,78.84,316.41,32,254.17A158.7,158.7,0,0,1,47.85,45C103.74-9.78,193.08-15.3,255.2,32.56c63.92,49.25,82.77,140,35,215.3,3.14,3.32,6.41,7,9.86,10.42q45.38,45.42,90.79,90.8c13.11,13.11,13.1,13.12-.4,26.67-6.11,6.12-12.63,11.9-18.26,18.43-7.17,8.34-12.79,7.16-20.11-.28-30.95-31.51-62.39-62.53-93.52-93.86C255.39,296.84,253.12,292.74,250.25,288.83ZM15.83,158.88C16.07,238,80.67,302.37,159.3,301.78c78.31-.58,142.25-64.63,142.57-142.82.33-79.34-64.56-143.64-144.49-143.19C78.79,16.22,15.6,80.1,15.83,158.88ZM280.21,261c-6.74,7-12.74,13.32-17.57,18.38l99.66,99.65,19.47-17.17c-32.56-32.49-64-63.89-95.5-95.28C284.69,265,283,263.58,280.21,261Z"/><path class="cls-1" d="M158.59,272.93C95.19,272.84,44,221.63,44.31,158.52A114.35,114.35,0,1,1,158.59,272.93Zm98.58-114.62a98.3,98.3,0,0,0-99.1-98.61c-53.9.24-98.11,44.51-98.26,98.39a98.48,98.48,0,0,0,98.7,99.08C213.6,257.24,257.32,213.44,257.17,158.31Z"/><path class="cls-1" d="M94.5,148.88a7.29,7.29,0,0,1-1.91-5.2c1.16-31.95,31.55-62.2,61.15-61.93a6.91,6.91,0,0,1,2.41.49c5.92,2.23,6.92,10.52,1.56,13.87a6.4,6.4,0,0,1-2,.85c-31.16,6.77-40.81,16.51-47.37,47.7-.37,1.77-1.76,3.33-3.45,4.82A7.36,7.36,0,0,1,94.55,149Z"/></g></g></svg>