<?xml version="1.0" encoding="UTF-8"?>
<svg width="26px" height="26px" viewBox="0 0 26 26" version="1.1" xmlns="http://www.w3.org/2000/svg" xmlns:xlink="http://www.w3.org/1999/xlink">
    <title>88FCBDB9-46E3-463E-9FD9-5A4797C705C7</title>
    <g id="Page-1" stroke="none" stroke-width="1" fill="none" fill-rule="evenodd">
        <g id="Home-2b" transform="translate(-1660.000000, -3151.000000)" fill="#1B56EA" fill-rule="nonzero">
            <g id="Footer" transform="translate(0.000000, 3006.000000)">
                <g id="Group-4" transform="translate(1510.331714, 145.264667)">
                    <g id="Group" transform="translate(149.934819, 0.000000)">
                        <path d="M12.7334667,2.29506667 C16.1354667,2.29506667 16.5368,2.30906667 17.8817333,2.36973333 C19.1212,2.4276 19.796,2.63293333 20.244,2.80933333 C20.8385333,3.03893333 21.2650667,3.31613333 21.7084,3.76226667 C22.1536,4.20933333 22.428,4.63306667 22.6613333,5.22573333 C22.8368,5.6728 23.0421333,6.34853333 23.1009333,7.58893333 C23.1597333,8.93106667 23.1737333,9.33333333 23.1737333,12.7353333 C23.1737333,16.1373333 23.1597333,16.5377333 23.1009333,17.8817333 C23.0430667,19.1230667 22.8386667,19.7978667 22.6613333,20.2449333 C22.4317333,20.8404 22.1536,21.2650667 21.7084,21.7093333 C21.2613333,22.1545333 20.8357333,22.4289333 20.244,22.6613333 C19.796,22.8368 19.1212,23.0430667 17.8817333,23.1028 C16.5396,23.1616 16.1354667,23.1756 12.7334667,23.1756 C9.33426667,23.1756 8.932,23.1616 7.588,23.1028 C6.34666667,23.0449333 5.6728,22.8377333 5.2248,22.6613333 C4.62933333,22.4317333 4.2056,22.1545333 3.7604,21.7093333 C3.31426667,21.2622667 3.03893333,20.8376 2.80746667,20.2449333 C2.632,19.7978667 2.42573333,19.1230667 2.3688,17.8817333 C2.3072,16.5396 2.29413333,16.1373333 2.29413333,12.7353333 C2.29413333,9.33333333 2.3072,8.93386667 2.3688,7.58893333 C2.42573333,6.34853333 2.63293333,5.6728 2.80746667,5.22573333 C3.03893333,4.63026667 3.31426667,4.2056 3.7604,3.76226667 C4.2056,3.31613333 4.62933333,3.04266667 5.2248,2.80933333 C5.6728,2.63386667 6.3476,2.4276 7.588,2.36973333 C8.932,2.30906667 9.33426667,2.29506667 12.7334667,2.29506667 M12.7334667,0 C9.27546667,0 8.8424,0.0168 7.4844,0.0765333333 C6.1292,0.138133333 5.20333333,0.353733333 4.3932,0.671066667 C3.556,0.9968 2.84573333,1.42893333 2.13733333,2.13826667 C1.42893333,2.84573333 0.994,3.55786667 0.668266667,4.3932 C0.353733333,5.2024 0.139066667,6.12826667 0.0765333333,7.4844 C0.0149333333,8.84333333 0,9.2764 0,12.7344 C0,16.1924 0.0149333333,16.6264 0.0765333333,17.9844 C0.138133333,19.3396 0.353733333,20.2617333 0.668266667,21.0756 C0.994,21.9118667 1.42893333,22.6230667 2.13733333,23.3305333 C2.8448,24.0398667 3.55506667,24.4766667 4.3932,24.7986667 C5.20333333,25.1132 6.1292,25.3278667 7.4844,25.3922667 C8.8424,25.452 9.27546667,25.4688 12.7334667,25.4688 C16.1924,25.4688 16.6264,25.452 17.9844,25.3922667 C19.3396,25.3325333 20.2636,25.1132 21.0756,24.7986667 C21.9118667,24.472 22.6230667,24.0398667 23.3324,23.3305333 C24.0398667,22.6230667 24.4776,21.9109333 24.7986667,21.0756 C25.1150667,20.2664 25.3288,19.3433333 25.3922667,17.9844 C25.4529333,16.6264 25.4688,16.1924 25.4688,12.7344 C25.4688,9.2764 25.4529333,8.84333333 25.3922667,7.4844 C25.3334667,6.13013333 25.1150667,5.20613333 24.7986667,4.3932 C24.4729333,3.55693333 24.0398667,2.84573333 23.3324,2.13826667 C22.6230667,1.42893333 21.9128,0.994 21.0756,0.671066667 C20.2664,0.353733333 19.3442667,0.140933333 17.9844,0.0765333333 C16.6264,0.0168 16.1924,0 12.7334667,0" id="Shape"></path>
                        <g transform="translate(6.195467, 4.410933)">
                            <path d="M6.538,1.78546667 C2.92786667,1.78546667 0,4.71333333 0,8.3244 C0,11.9354667 2.92786667,14.8633333 6.538,14.8633333 C10.15,14.8633333 13.0769333,11.9354667 13.0769333,8.3244 C13.0769333,4.71333333 10.15,1.78546667 6.538,1.78546667 M6.538,12.5692 C4.1944,12.5692 2.29413333,10.6689333 2.29413333,8.3244 C2.29413333,5.978 4.1944,4.0796 6.538,4.0796 C8.8844,4.0796 10.7837333,5.978 10.7837333,8.3244 C10.7837333,10.6689333 8.8844,12.5692 6.538,12.5692" id="Shape"></path>
                            <path d="M14.8633333,1.52786667 C14.8633333,2.3716 14.182,3.05666667 13.3354667,3.05666667 C12.4889333,3.05666667 11.8057333,2.3744 11.8057333,1.52786667 C11.8057333,0.685066667 12.4870667,0 13.3354667,0 C14.1801333,0 14.8633333,0.682266667 14.8633333,1.52786667" id="Path"></path>
                        </g>
                    </g>
                </g>
            </g>
        </g>
    </g>
</svg>