<svg xmlns="http://www.w3.org/2000/svg" viewBox="0 0 461.64 454.62"><defs><style>.cls-1{fill:#1b56ea;}</style></defs><g id="Layer_2" data-name="Layer 2"><g id="Layer_1-2" data-name="Layer 1"><path class="cls-1" d="M230.25,454.57q-17,0-34,0c-21.08,0-23.22-2.24-23.05-23.8.13-16.51,7.88-28,21.9-32.17,8.31-2.46,15.42-2.34,21.91,5.57,8.19,10,18.57,10.71,26.17,1.55S259,395.44,269,399.34c11.69,4.55,17.76,13.55,19.39,25.66.52,3.84.19,7.81.14,11.72-.17,13.73-3.81,17.62-17.22,17.8C257.63,454.71,243.93,454.57,230.25,454.57Zm-42.59-14.94h86.61c0-4.05.94-7.55-.19-10.14-2.48-5.68-5.06-12-9.55-15.78-1.88-1.57-9.44,1.82-13.15,4.63-13.37,10.16-28.64,10.15-41.8-.93-9.36-7.89-19.66-4.59-21.79,7.33C187,429.24,187.66,434,187.66,439.63Z"/><path class="cls-1" d="M57.68,296.25c-13.67,0-27.34.17-41-.05C5,296,.53,291.52.14,279.81-.23,268.44-.52,257.12,8.38,248c11.11-11.4,24.87-12,36.39-1.14,8.38,7.89,18.7,8.7,25.63-.26,7.33-9.48,16-9.11,25-6.19,10.69,3.47,17.27,11.67,19.29,23a37.86,37.86,0,0,1,.26,5.85c.55,25.59-.84,27-26.8,27Zm43.18-14.92c0-4.73,1-8.62-.21-11.62-2.18-5.42-4.66-11.75-9-14.82-2.35-1.64-9.68,1.7-13.41,4.56-13.37,10.24-29,10-42.72-1.64-7.66-6.51-15.52-5.41-19.16,3.88-2.26,5.77-1.92,12.56-2.85,19.64Z"/><path class="cls-1" d="M403.32,296.25c-13.28,0-26.56.16-39.83-.05-12.38-.19-16.52-4.59-16.71-17.14-.15-10.51-1-21,6.86-29.92,10.76-12.25,25.86-13.51,37.12-2.56,8.29,8.07,17.6,8.26,25.92.54,15.73-14.58,38.56-7.71,43.55,13.67,1.74,7.44,1.62,15.56,1,23.25-.76,8.95-7.24,12.23-15.71,12.22C431.44,296.22,417.38,296.25,403.32,296.25Zm-42.13-15.12h85.93c.22-3.8,1.38-7.25.36-9.85-2.28-5.82-4.54-12.64-9.06-16.18-2.24-1.75-10.21,1.82-14.28,4.78-13.34,9.69-28.78,9.41-41.79-1.77-9-7.71-19-4.35-21,7.44C360.49,270.42,361.19,275.54,361.19,281.13Z"/><path class="cls-1" d="M230.74,136.82c-14.08,0-28.16,0-42.24,0-10.14,0-15.83-5.07-15.11-15,.68-9.5.94-20,5.15-28.09C187.05,77.41,204.86,75.65,218,88c8.25,7.74,17.82,8.77,24.74.39,7.53-9.1,15.66-10.62,25.77-6.92,11.78,4.31,18.18,13.2,19.81,25.34a86.48,86.48,0,0,1,.1,16.41c-.53,8.79-5.28,13.55-14.29,13.57C259.69,136.84,245.22,136.81,230.74,136.82Zm43.53-14.58c0-4.43.94-7.95-.19-10.57-2.47-5.7-5-12.1-9.54-15.83-1.88-1.56-9.53,2-13.29,4.88-13.33,10.24-28.54,10.16-41.7-1.11-9.31-8-19.75-4.51-21.78,7.56-.8,4.78-.13,9.81-.13,15.07Z"/><path class="cls-1" d="M267.1,39.42c.1,23-14.59,39.47-35.67,39.9-21.39.43-36.93-16.44-36.81-39.95C194.74,16.73,210.17,0,230.89,0S267,16.77,267.1,39.42Zm-14.28-.19c-.14-14.87-9.13-25-22.11-24.91-13.3.09-22.13,10.77-21.81,26.37.29,14.52,10,25,22.69,24.46S253,54.11,252.82,39.23Z"/><path class="cls-1" d="M194.62,357c.13-22.66,15.64-39.44,36.37-39.34,21.2.1,36.45,17.33,36.11,40.79-.33,22.47-16.44,39.38-37,38.79C209.35,396.66,194.49,379.82,194.62,357Zm14.27,1c.14,14.71,9.36,25.07,22.2,24.92s21.72-10.53,21.73-25.38-8.89-25.34-21.61-25.6C218.15,331.66,208.76,342.63,208.89,358Z"/><path class="cls-1" d="M93.53,198.89c0,23.45-14.31,39-35.85,39S22,222.31,22,198.84c0-23.74,13.84-39.34,35.18-39.53C79.36,159.12,93.56,174.57,93.53,198.89Zm-14.33-.1c0-15.74-7.93-25.22-21.29-25.33S36,183,36,198.36c-.07,15.65,8,25.13,21.5,25.23S79.17,214.39,79.2,198.79Z"/><path class="cls-1" d="M368.19,198.35c0-23.53,14.18-39,35.75-39,21.88-.06,36,15.7,35.8,40.07-.15,23.29-14.7,38.73-36.25,38.5S368.16,222.06,368.19,198.35Zm14.33.12c0,15.74,7.92,25.06,21.4,25.11s21.79-9.33,21.83-24.9-8.27-25.18-21.63-25.23S382.54,182.91,382.52,198.47Z"/><path class="cls-1" d="M84.36,138.57c21.51-33.2,50.58-57,87.8-70.87a5.09,5.09,0,0,0,1.06-.55c5.26-3.53,2.79-11.68-3.5-12.43A5.63,5.63,0,0,0,167,55a246.32,246.32,0,0,0-35.67,17.36c-24.15,14.54-43.51,34.29-58.47,58.18-1.75,2.8-1.75,7.1-1.43,10.61a2.06,2.06,0,0,0,.52.93,6.34,6.34,0,0,0,9.71-.17Z"/><path class="cls-1" d="M392.15,138c-1,1.3-2.17,4.25-4.19,5a9.55,9.55,0,0,1-7.55-.86c-2.13-1.33-3.33-4.21-4.84-6.48C354.76,104.5,326.66,82.49,292,68.34c-4.08-1.67-10.19-7.72-9.51-10,2.32-7.89,9-4.84,14.51-2.76,38.61,14.52,68.71,39.58,91.44,73.77a50.94,50.94,0,0,1,2.93,5.07A19.48,19.48,0,0,1,392.15,138Z"/><path class="cls-1" d="M305.6,403.14a8,8,0,0,1-8.78-1.63,4.25,4.25,0,0,1-1.07-1.61,9.3,9.3,0,0,1,1.34-7.43c1.47-2,4.41-3,6.85-4.15q48.48-22.87,76-68.85c.81-1.34,1.32-3.23,2.5-3.88.68-.38,1.38-.73,2.09-1.06a7.1,7.1,0,0,1,10.1,5.51,3.82,3.82,0,0,1-.33,2.2c-20.17,36.76-49.72,63.53-88,80.6Z"/><path class="cls-1" d="M68.63,310.35a7.52,7.52,0,0,1,10.36,4,20,20,0,0,0,1.24,2.44C99.29,349.83,126.41,374,161,390.21a4.51,4.51,0,0,1,1.76,1.67,7,7,0,0,1-5.24,10.84,4.43,4.43,0,0,1-2.05-.29C117.23,386,88.08,359.27,67.76,323.12c-1.75-3.11-2.58-8.87.79-12.74Z"/></g></g></svg>